HIERARCHY
ROOT Hips
{
	OFFSET -3.958830 18.904000 13.208200
	CHANNELS 6 Xposition Yposition Zposition Zrotation Yrotation Xrotation 
	JOINT LHipJoint
	{
		OFFSET 0.000000 0.000000 0.000000
		CHANNELS 3 Zrotation Yrotation Xrotation
		JOINT LeftUpLeg
		{
			OFFSET 1.800000 -1.400000 0.085000
			CHANNELS 3 Zrotation Yrotation Xrotation
			JOINT LeftLeg
			{
				OFFSET 2.215000 -6.000000 0.000000
				CHANNELS 3 Zrotation Yrotation Xrotation
				JOINT LeftFoot
				{
					OFFSET 2.500000 -6.900000 0.000000
					CHANNELS 3 Zrotation Yrotation Xrotation
					JOINT LeftToeBase
					{
						OFFSET 0.200000 -0.500000 1.950000
						CHANNELS 3 Zrotation Yrotation Xrotation
						End Site
						{
							OFFSET 0.000000 0.000000 0.000000
						}
					}
				}
			}
		}
	}
	JOINT RHipJoint
	{
		OFFSET 0.000000 0.000000 0.000000
		CHANNELS 3 Zrotation Yrotation Xrotation
		JOINT RightUpLeg
		{
			OFFSET -1.800000 -1.400000 0.085000
			CHANNELS 3 Zrotation Yrotation Xrotation
			JOINT RightLeg
			{
				OFFSET -2.215000 -6.000000 0.000000
				CHANNELS 3 Zrotation Yrotation Xrotation
				JOINT RightFoot
				{
					OFFSET -2.500000 -6.900000 0.000000
					CHANNELS 3 Zrotation Yrotation Xrotation
					JOINT RightToeBase
					{
						OFFSET -0.200000 -0.500000 1.950000
						CHANNELS 3 Zrotation Yrotation Xrotation
						End Site
						{
							OFFSET 0.000000 0.000000 0.000000
						}
					}
				}
			}
		}
	}
	JOINT LowerBack
	{
		OFFSET 0.000000 0.000000 0.000000
		CHANNELS 3 Zrotation Yrotation Xrotation
		JOINT Spine
		{
			OFFSET -0.087000 1.940000 -0.288900
			CHANNELS 3 Zrotation Yrotation Xrotation
			JOINT Spine1
			{
				OFFSET 0.000000 1.950000 0.060000
				CHANNELS 3 Zrotation Yrotation Xrotation
				JOINT Neck
				{
					OFFSET 0.000000 0.000000 0.000000
					CHANNELS 3 Zrotation Yrotation Xrotation
					JOINT Neck1
					{
						OFFSET 0.000000 1.600000 0.340000
						CHANNELS 3 Zrotation Yrotation Xrotation
						JOINT Head
						{
							OFFSET 0.000000 1.667000 -0.240000
							CHANNELS 3 Zrotation Yrotation Xrotation
							End Site
							{
								OFFSET 0.000000 0.000000 0.000000
							}
						}
					}
				}
				JOINT LeftShoulder
				{
					OFFSET 0.000000 0.000000 0.000000
					CHANNELS 3 Zrotation Yrotation Xrotation
					JOINT LeftArm
					{
						OFFSET 2.700000 1.550000 -0.730000
						CHANNELS 3 Zrotation Yrotation Xrotation
						JOINT LeftForeArm
						{
							OFFSET 5.450000 0.000000 0.000000
							CHANNELS 3 Zrotation Yrotation Xrotation
							JOINT LeftHand
							{
								OFFSET 3.450000 0.000000 0.000000
								CHANNELS 3 Zrotation Yrotation Xrotation
								JOINT LeftHandIndex1
								{
									OFFSET 0.750000 0.000000 0.000000
									CHANNELS 3 Zrotation Yrotation Xrotation
									End Site
									{
										OFFSET 0.000000 0.000000 0.000000
									}
								}
							}
						}
					}
				}
				JOINT RightShoulder
				{
					OFFSET 0.000000 0.000000 0.000000
					CHANNELS 3 Zrotation Yrotation Xrotation
					JOINT RightArm
					{
						OFFSET -2.700000 1.550000 -0.730000
						CHANNELS 3 Zrotation Yrotation Xrotation
						JOINT RightForeArm
						{
							OFFSET -5.450000 0.000000 0.000000
							CHANNELS 3 Zrotation Yrotation Xrotation
							JOINT RightHand
							{
								OFFSET -3.450000 0.000000 0.000000
								CHANNELS 3 Zrotation Yrotation Xrotation
								JOINT RightHandIndex1
								{
									OFFSET -0.750000 0.000000 0.000000
									CHANNELS 3 Zrotation Yrotation Xrotation
									End Site
									{
										OFFSET 0.000000 0.000000 0.000000
									}
								}
							}
						}
					}
				}
			}
		}
	}
}
MOTION
Frames: 14
Frame Time: 0.016667
8.241010 15.896110 -4.407680 -0.234724 28.402502 -4.599070 -15.215386 11.272027 3.723946 12.347754 -1.581123 -46.688374 21.357284 1.539610 24.942467 -0.128798 4.327845 2.744711 0.123750 -0.013920 0.008000 18.612388 -8.974662 4.269454 -13.089648 13.087992 -29.864085 12.986624 -31.852175 85.199389 -3.207796 -15.374159 -0.458392 -0.081550 -0.051300 -0.005190 -4.352044 -0.955129 -9.299718 6.134703 2.086114 45.235799 -13.711366 5.574858 -9.917371 2.273785 -12.293367 -11.838962 -41.216759 17.016740 43.327626 7.869590 -3.594180 -12.816180 -18.600440 9.743730 -0.262428 -42.926305 19.384413 -15.561515 -83.449482 -53.452497 37.275030 -3.153627 3.358785 0.698090 -0.397370 0.295940 0.047910 14.006948 1.162509 7.302685 56.616346 -25.999743 -26.359633 36.120515 38.923931 7.006123 2.354522 -1.055812 -0.124800 0.288820 0.118560 -0.021890 
8.458250 15.770990 -4.395670 -0.030216 26.073008 -5.030262 -15.198221 11.078517 3.727892 12.465734 -2.101535 -47.137981 23.085758 0.865028 31.132570 -0.025992 5.217995 2.406737 0.241560 0.156030 0.071310 18.665188 -8.725621 4.530638 -13.954656 13.499781 -31.586169 17.627124 -35.248828 83.232158 -3.375972 -15.734121 -0.541846 0.018890 -0.085760 0.019600 -4.355106 -0.814609 -9.415806 5.531044 2.309155 44.924514 -12.619826 5.878116 -9.367315 0.987547 -11.722890 -10.654079 -40.492004 17.630006 47.769671 8.023880 -3.327320 -14.988390 -24.402037 5.936022 -0.828861 -40.959561 14.734302 -14.675513 -73.369713 -58.173939 35.144486 -3.185685 3.329977 0.689250 -0.399740 0.346510 0.073410 21.742559 4.401071 6.363380 56.184760 -19.940861 -23.997911 22.728024 39.004847 3.989392 2.332694 -1.013570 -0.078590 0.300390 0.065420 -0.013520 
8.613180 15.680570 -4.414870 -0.077025 23.170298 -5.723161 -15.212157 10.893041 3.838852 13.710534 -2.568597 -47.726597 22.779068 0.868740 37.886435 0.150213 6.190454 2.063347 0.330550 0.300580 0.107690 18.689776 -8.436152 4.731928 -14.124193 13.771849 -33.469869 21.962058 -37.948500 80.913968 -3.482360 -15.942198 -0.571917 0.097040 -0.110630 0.013070 -4.265223 -0.842860 -9.549863 3.874615 2.111088 45.515896 -11.334733 5.525321 -9.224734 0.088106 -11.390011 -9.850459 -39.423129 17.729442 50.841597 7.747910 -3.006570 -14.419560 -30.222976 2.131846 -0.809405 -38.543432 11.486698 -13.916939 -70.107307 -63.795740 37.348224 -3.170721 3.402171 0.622640 -0.390180 0.358420 0.111300 29.154823 8.160334 5.864600 52.591515 -14.553180 -20.463710 14.965435 36.593687 1.941986 2.329823 -1.080496 -0.027430 0.288660 -0.003370 0.008610 
8.748950 15.615300 -4.442990 -0.316910 19.661325 -6.806101 -15.220245 10.820661 3.942415 16.428134 -3.014789 -47.085805 20.748313 1.630495 44.464952 0.261354 7.217008 1.714335 0.386770 0.375990 0.166350 18.704799 -8.312971 4.746525 -13.833255 13.252731 -34.963267 22.285339 -38.478546 80.545868 -3.518410 -16.023621 -0.590766 0.156340 -0.112530 0.021290 -4.206094 -0.929156 -9.597080 2.588235 0.903617 45.744032 -10.885214 4.289605 -8.009425 -0.229239 -10.681806 -9.505354 -38.289787 18.863011 53.431470 5.815850 -0.809990 -13.403780 -34.459918 -1.763619 -0.682667 -35.181009 5.889422 -12.716978 -63.170473 -70.712733 37.717636 -3.173007 3.453044 0.598930 -0.356170 0.366090 0.125630 34.025028 10.749708 5.790350 49.898798 -10.050982 -18.169253 13.098778 36.067278 1.429083 2.297867 -1.157706 -0.025220 0.301810 -0.035940 -0.005980 
8.867910 15.568240 -4.486580 0.052842 16.716094 -7.466166 -15.238877 10.787333 4.013266 18.195301 -3.745796 -46.204018 18.710015 2.608258 49.491128 0.311472 8.045599 1.426490 0.411370 0.393520 0.214750 18.701188 -8.205151 4.775330 -14.845310 12.428792 -36.712655 20.430389 -39.031392 82.928641 -3.587583 -16.377774 -0.689617 0.194920 -0.115810 0.033820 -4.128214 -1.119981 -9.644495 1.062223 -0.036329 46.096351 -10.262093 3.110247 -6.028698 -0.527350 -10.072451 -9.673856 -36.689265 18.543121 54.845399 4.561120 0.459960 -13.663150 -36.113563 -6.181094 -0.337781 -31.181799 -0.708829 -11.681843 -52.458598 -74.285551 32.553604 -3.202371 3.438989 0.608310 -0.330290 0.364030 0.110070 36.477335 13.773858 6.581830 48.019323 -5.894314 -17.088091 15.938843 39.494357 2.331748 2.240393 -1.250912 -0.048040 0.311950 -0.031150 -0.040580 
8.956340 15.540560 -4.529380 0.107020 13.480563 -7.453986 -15.258598 10.692650 4.109672 20.111271 -3.892957 -45.983139 16.864412 3.934238 53.238781 0.360579 8.750283 1.178543 0.423560 0.406960 0.225720 18.723194 -8.088660 4.773011 -15.497710 12.117043 -39.101960 15.126784 -38.334355 89.062138 -3.698564 -16.973083 -0.838047 0.225630 -0.106540 0.048810 -4.091291 -1.264815 -9.706207 0.733433 -0.907408 45.662124 -9.845168 2.285706 -3.277746 -0.936304 -9.978468 -9.973785 -36.539451 17.347195 54.444667 4.298110 -0.285650 -15.121620 -34.487391 -9.545281 -0.409410 -29.118202 -7.525634 -10.633857 -36.233503 -75.788795 21.821129 -3.276750 3.294747 0.612760 -0.317000 0.360980 0.098250 35.761763 16.067910 7.642960 47.547374 -2.124921 -17.010295 21.625760 48.317653 5.026458 2.198607 -1.350412 -0.059550 0.331120 -0.012160 -0.047820 
8.997490 15.540950 -4.572980 0.091469 10.420374 -7.937710 -15.273315 10.786562 4.091735 21.980082 -3.814290 -44.516589 15.163896 5.216924 55.447882 0.347757 9.270663 0.990505 0.391440 0.344200 0.234360 18.719242 -8.142775 4.676307 -15.840438 11.436829 -40.594957 7.731233 -35.930773 96.541882 -3.738503 -17.361006 -0.948074 0.223300 -0.077960 0.077740 -4.056970 -1.454667 -9.692749 0.337709 -1.471199 45.783764 -9.308388 1.628528 -0.482332 -1.373675 -9.564273 -10.668560 -35.044248 15.945507 53.672628 3.813920 -0.105680 -15.951070 -32.014088 -13.783520 -0.447236 -24.511793 -13.596360 -9.543543 -26.968013 -77.277220 16.296537 -3.354636 3.183503 0.637110 -0.282510 0.341820 0.062060 34.358187 18.905284 9.464451 47.049218 0.312652 -16.938117 31.670354 60.002916 11.200905 2.160431 -1.466000 -0.102360 0.342300 0.039360 -0.078540 
9.016270 15.574940 -4.616000 -0.161313 7.036519 -8.407046 -15.273991 10.967933 3.986127 23.702283 -3.325945 -42.464862 13.609534 6.325904 55.396264 0.348105 9.375560 0.950107 0.364060 0.316890 0.208710 18.709378 -8.255745 4.610409 -16.294519 10.919138 -41.785808 2.041328 -32.875784 101.444819 -3.689445 -17.301981 -0.936728 0.211380 -0.053650 0.086660 -4.044653 -1.605998 -9.654365 -0.130132 -1.987907 46.097666 -8.612163 0.624706 1.430323 -1.735758 -9.332132 -12.005191 -33.191698 15.070802 52.522578 4.442780 0.501000 -15.744570 -29.185139 -18.515321 0.399815 -18.462570 -15.027818 -10.515683 -13.295337 -82.111449 6.854418 -3.342143 3.138933 0.622910 -0.258550 0.321520 0.056240 32.678046 22.856656 11.322652 45.187950 3.469993 -15.487791 40.257437 66.742242 17.572540 2.176860 -1.546132 -0.109880 0.330490 0.056750 -0.077270 
8.999040 15.625650 -4.643140 -0.431085 4.278809 -8.668198 -15.295770 11.213139 3.848305 25.015603 -2.889540 -40.344120 12.546601 6.994334 54.443035 0.302676 9.339372 0.969068 0.353500 0.301630 0.169470 18.674540 -8.347603 4.525176 -17.013631 10.132738 -42.421660 -1.691988 -30.067424 103.586966 -3.584779 -17.013679 -0.870530 0.221060 -0.002450 0.087580 -3.970364 -1.923436 -9.562179 -0.638499 -2.282276 45.858616 -7.282090 -0.254223 3.423781 -2.514078 -9.420416 -12.441503 -32.012902 14.025937 49.835542 6.002880 0.155330 -16.329530 -25.461916 -21.403609 0.044636 -14.384713 -17.301435 -11.942058 22.147681 -84.591791 -22.273982 -3.280585 2.747192 0.612080 -0.232680 0.283250 0.075130 30.666549 25.030159 12.583465 42.410539 7.021862 -12.341171 55.866828 75.104214 30.884007 2.316064 -1.522359 -0.133120 0.347550 0.073130 -0.068770 
8.958660 15.717190 -4.665820 -1.566517 1.338640 -8.788441 -15.303954 11.418911 3.682373 26.804640 -2.221431 -38.176594 12.247239 7.177798 52.559490 0.245279 9.126216 1.025870 0.333770 0.275370 0.191300 18.653605 -8.394001 4.522668 -17.449508 9.599544 -43.108730 -3.037460 -28.905616 103.753489 -3.522791 -16.845993 -0.843072 0.203990 -0.015580 0.104850 -3.937978 -2.130208 -9.513552 0.040265 -2.762759 45.053321 -6.998591 -0.782299 5.475079 -2.465496 -8.476493 -12.817268 -28.259780 12.611026 49.912937 4.493660 1.562850 -16.427780 -22.080918 -24.547758 -0.553031 -9.403864 -18.944634 -13.569683 52.210877 -82.507176 -43.511661 -3.154304 1.802635 0.606250 -0.206380 0.281270 0.049930 27.171709 27.047600 13.878251 41.555280 10.070264 -8.787777 70.844996 83.666371 45.521490 2.882188 -0.749912 -0.134890 0.318690 0.079010 -0.095380 
8.863150 15.829660 -4.687300 -2.753505 -1.700608 -8.796736 -15.337900 11.648128 3.469233 28.684061 -1.343509 -35.637200 11.969281 7.317615 49.777694 0.167538 8.790347 1.123920 0.330340 0.267750 0.241380 18.604809 -8.374488 4.578693 -17.887651 9.474057 -43.216395 -1.681306 -29.431704 101.775828 -3.495505 -16.772796 -0.839174 0.193200 -0.048110 0.126810 -3.831603 -2.382529 -9.456825 0.006811 -2.855189 44.485279 -6.769948 -1.216836 6.768385 -2.182535 -7.371951 -12.193212 -24.010276 10.479334 49.084574 1.811990 2.849000 -17.879550 -18.758180 -25.801718 -1.017544 -3.542907 -20.920644 -13.434146 66.909320 -78.322758 -49.449899 -3.036471 1.071900 0.604260 -0.187010 0.295510 0.021860 23.091150 27.890285 13.278386 40.586914 14.322202 -7.269046 89.112534 86.791840 64.708014 4.368460 2.922946 -0.127960 0.292500 0.072640 -0.127980 
8.734170 15.997390 -4.699260 -4.030573 -4.176160 -8.603472 -15.354370 11.942355 3.169872 29.906179 -0.388595 -32.838528 12.470328 6.838774 45.526475 0.084948 8.216371 1.316021 0.281360 0.221380 0.209010 18.551960 -8.352509 4.676777 -18.670910 9.497750 -42.082292 2.784091 -31.863199 97.249273 -3.448338 -16.790597 -0.854417 0.166720 -0.011460 0.147660 -3.744446 -2.675822 -9.378249 0.721829 -2.969105 43.671127 -5.527637 -1.445404 7.838808 -2.275734 -7.497893 -12.105339 -23.346468 11.187491 48.254417 0.083200 4.164920 -16.298010 -16.774800 -26.523997 0.064528 0.623284 -21.023208 -12.404378 75.995815 -74.159519 -52.432066 -3.075831 0.850799 0.550610 -0.131310 0.258600 0.008560 21.410126 29.674788 11.848071 36.691186 15.402401 -15.515498 113.555254 78.885087 92.091629 2.852047 2.340599 -0.124150 0.265390 0.097540 -0.119400 
8.583550 16.185890 -4.720720 -5.063603 -6.187612 -7.760334 -15.390143 12.172410 2.955662 30.552630 0.197893 -31.076579 13.267038 6.160288 41.091724 -0.010010 7.610146 1.534184 0.254630 0.188600 0.188070 18.489818 -8.247482 4.780283 -19.700216 9.256564 -40.848873 8.945466 -34.593128 90.672000 -3.357507 -16.621551 -0.831379 0.163420 0.023430 0.157270 -3.615208 -3.074591 -9.304592 0.780138 -3.352936 41.729804 -4.191715 -1.986440 9.869525 -2.389006 -7.788637 -12.012485 -22.739686 11.074619 46.752132 -1.711430 4.419360 -14.803750 -15.064239 -26.419890 0.696319 3.544933 -20.831681 -11.492235 79.718890 -70.482608 -52.285587 -3.180096 1.007506 0.492080 -0.077790 0.207440 0.006600 19.988938 30.555769 11.485049 31.978322 19.878820 -12.244022 157.530705 82.358567 146.951435 1.904476 -0.911388 -0.129040 0.246910 0.111390 -0.116910 
8.398970 16.372050 -4.741280 -5.729816 -8.335730 -6.200179 -15.434332 12.340386 2.825182 31.121468 0.687048 -29.773551 13.770762 5.747161 37.145439 -0.078026 7.127504 1.724554 0.215180 0.139360 0.160760 18.427174 -8.133271 4.866043 -20.259066 9.245076 -39.810306 15.105773 -36.212059 83.527475 -3.210825 -16.157759 -0.725132 0.150130 0.068010 0.153690 -3.475567 -3.430166 -9.258348 0.695921 -3.345326 39.126990 -3.122707 -2.085190 11.257077 -2.311936 -7.758627 -12.342951 -22.004006 10.934197 45.504626 -3.157050 4.846930 -12.959380 -13.480639 -26.029264 0.766322 5.030890 -20.514661 -10.986450 77.826932 -68.953108 -49.143532 -3.264919 1.233167 0.447170 -0.025100 0.154580 0.009580 18.292497 30.514053 12.035053 28.159032 24.925681 -4.238742 -131.441975 79.673874 -137.141200 2.312008 -1.410746 -0.150020 0.245120 0.127260 -0.118850 
